<svg width="339" height="102" viewBox="0 0 339 102" fill="none" xmlns="http://www.w3.org/2000/svg">
<rect x="1" y="1" width="337" height="99.25" rx="49.625" fill="#F18E1A"/>
<rect x="1" y="1" width="337" height="99.25" rx="49.625" stroke="white" stroke-width="2"/>
<path d="M125.496 65.385V63.993H125.928C126.44 63.993 126.928 63.857 127.392 63.585C127.856 63.313 128.232 62.865 128.52 62.241C128.808 61.617 128.952 60.769 128.952 59.697V45.225C128.952 44.793 128.896 44.473 128.784 44.265C128.672 44.057 128.52 43.921 128.328 43.857C128.152 43.793 127.952 43.761 127.728 43.761H126.72V42.489H135V43.761H133.992C133.768 43.761 133.56 43.801 133.368 43.881C133.176 43.945 133.024 44.089 132.912 44.313C132.8 44.521 132.744 44.857 132.744 45.321V59.673C132.744 60.761 132.568 61.673 132.216 62.409C131.864 63.145 131.384 63.729 130.776 64.161C130.184 64.593 129.504 64.905 128.736 65.097C127.968 65.289 127.176 65.385 126.36 65.385H125.496ZM142.859 59.865C140.939 59.865 139.427 59.313 138.323 58.209C137.219 57.089 136.667 55.401 136.667 53.145C136.667 50.889 137.195 49.209 138.251 48.105C139.307 47.001 140.867 46.449 142.931 46.449C144.851 46.449 146.363 47.001 147.467 48.105C148.571 49.209 149.123 50.889 149.123 53.145C149.123 55.401 148.587 57.089 147.515 58.209C146.459 59.313 144.907 59.865 142.859 59.865ZM142.907 58.353C143.531 58.353 144.019 58.161 144.371 57.777C144.739 57.377 145.003 56.793 145.163 56.025C145.323 55.241 145.403 54.281 145.403 53.145C145.403 51.993 145.323 51.041 145.163 50.289C145.003 49.521 144.739 48.945 144.371 48.561C144.003 48.177 143.515 47.985 142.907 47.985C142.283 47.985 141.787 48.177 141.419 48.561C141.051 48.945 140.787 49.521 140.627 50.289C140.467 51.041 140.387 51.993 140.387 53.145C140.387 54.281 140.467 55.241 140.627 56.025C140.787 56.793 141.051 57.377 141.419 57.777C141.803 58.161 142.299 58.353 142.907 58.353ZM150.666 59.625V58.353H150.954C151.194 58.353 151.442 58.321 151.698 58.257C151.97 58.177 152.194 58.025 152.37 57.801C152.562 57.577 152.658 57.241 152.658 56.793V49.497C152.658 49.065 152.562 48.745 152.37 48.537C152.178 48.329 151.946 48.193 151.674 48.129C151.418 48.065 151.178 48.033 150.954 48.033H150.666V46.761H156.306V56.793C156.306 57.241 156.394 57.577 156.57 57.801C156.762 58.025 156.994 58.177 157.266 58.257C157.538 58.321 157.786 58.353 158.01 58.353H158.298V59.625H150.666ZM154.362 44.601C153.786 44.601 153.298 44.465 152.898 44.193C152.514 43.905 152.322 43.465 152.322 42.873C152.322 42.265 152.522 41.825 152.922 41.553C153.322 41.281 153.81 41.145 154.386 41.145C154.93 41.145 155.402 41.281 155.802 41.553C156.218 41.825 156.426 42.265 156.426 42.873C156.426 43.465 156.218 43.905 155.802 44.193C155.402 44.465 154.922 44.601 154.362 44.601ZM159.175 59.625V58.353H159.223C159.591 58.353 159.911 58.313 160.183 58.233C160.471 58.153 160.695 58.001 160.855 57.777C161.015 57.537 161.095 57.177 161.095 56.697V49.593C161.095 49.145 161.023 48.809 160.879 48.585C160.735 48.361 160.535 48.217 160.279 48.153C160.023 48.073 159.719 48.033 159.367 48.033H159.295V46.761H164.335L164.647 48.465H164.767C165.087 47.857 165.431 47.417 165.799 47.145C166.183 46.857 166.591 46.673 167.023 46.593C167.471 46.497 167.943 46.449 168.439 46.449C169.671 46.449 170.639 46.817 171.343 47.553C172.047 48.289 172.399 49.465 172.399 51.081V56.649C172.399 57.145 172.455 57.513 172.567 57.753C172.695 57.993 172.879 58.153 173.119 58.233C173.359 58.313 173.655 58.353 174.007 58.353H174.079V59.625H168.751V51.729C168.751 50.689 168.607 49.889 168.319 49.329C168.031 48.769 167.535 48.489 166.831 48.489C166.303 48.489 165.887 48.665 165.583 49.017C165.279 49.353 165.063 49.809 164.935 50.385C164.807 50.945 164.743 51.553 164.743 52.209V56.793C164.743 57.241 164.815 57.577 164.959 57.801C165.103 58.025 165.303 58.177 165.559 58.257C165.815 58.321 166.119 58.353 166.471 58.353H166.543V59.625H159.175ZM190.226 59.865C188.834 59.865 187.642 59.681 186.65 59.313C185.658 58.945 184.898 58.361 184.37 57.561C183.842 56.761 183.578 55.705 183.578 54.393V45.225C183.578 44.793 183.522 44.473 183.41 44.265C183.298 44.057 183.146 43.921 182.954 43.857C182.778 43.793 182.578 43.761 182.354 43.761H181.322V42.489H189.602V43.761H188.594C188.37 43.761 188.162 43.801 187.97 43.881C187.794 43.945 187.65 44.089 187.538 44.313C187.426 44.521 187.37 44.857 187.37 45.321V54.585C187.37 55.481 187.514 56.193 187.802 56.721C188.106 57.233 188.522 57.601 189.05 57.825C189.594 58.049 190.226 58.161 190.946 58.161C191.666 58.161 192.282 58.041 192.794 57.801C193.322 57.545 193.722 57.161 193.994 56.649C194.282 56.121 194.426 55.449 194.426 54.633V45.225C194.426 44.793 194.37 44.473 194.258 44.265C194.146 44.057 193.994 43.921 193.802 43.857C193.626 43.793 193.426 43.761 193.202 43.761H192.194V42.489H198.482V43.761H197.45C197.226 43.761 197.018 43.801 196.826 43.881C196.65 43.945 196.506 44.089 196.394 44.313C196.282 44.521 196.226 44.857 196.226 45.321V54.681C196.226 55.753 196.018 56.681 195.602 57.465C195.186 58.233 194.538 58.825 193.658 59.241C192.778 59.657 191.634 59.865 190.226 59.865ZM205.203 59.865C204.131 59.865 203.235 59.769 202.515 59.577C201.795 59.369 201.219 59.105 200.787 58.785C200.355 58.449 200.043 58.081 199.851 57.681C199.675 57.281 199.587 56.889 199.587 56.505C199.587 55.961 199.715 55.529 199.971 55.209C200.227 54.873 200.563 54.633 200.979 54.489C201.395 54.345 201.835 54.273 202.299 54.273C202.299 55.185 202.435 55.953 202.707 56.577C202.995 57.185 203.387 57.649 203.883 57.969C204.379 58.273 204.947 58.425 205.587 58.425C206.531 58.425 207.259 58.177 207.771 57.681C208.299 57.185 208.563 56.569 208.563 55.833C208.563 55.289 208.411 54.825 208.107 54.441C207.819 54.041 207.379 53.681 206.787 53.361C206.195 53.025 205.451 52.673 204.555 52.305C203.723 51.969 203.019 51.617 202.443 51.249C201.867 50.881 201.403 50.489 201.051 50.073C200.699 49.641 200.443 49.185 200.283 48.705C200.139 48.209 200.067 47.665 200.067 47.073C200.067 46.097 200.323 45.249 200.835 44.529C201.347 43.809 202.043 43.249 202.923 42.849C203.819 42.449 204.827 42.249 205.947 42.249C207.131 42.249 208.099 42.377 208.851 42.633C209.603 42.873 210.155 43.201 210.507 43.617C210.875 44.033 211.059 44.505 211.059 45.033C211.059 45.593 210.811 46.065 210.315 46.449C209.835 46.833 209.099 47.025 208.107 47.025C208.107 46.577 208.019 46.097 207.843 45.585C207.683 45.073 207.419 44.633 207.051 44.265C206.683 43.897 206.187 43.713 205.563 43.713C205.131 43.713 204.731 43.801 204.363 43.977C204.011 44.137 203.723 44.385 203.499 44.721C203.291 45.041 203.187 45.441 203.187 45.921C203.187 46.369 203.291 46.785 203.499 47.169C203.707 47.553 204.099 47.937 204.675 48.321C205.251 48.689 206.075 49.089 207.147 49.521C208.251 49.969 209.139 50.433 209.811 50.913C210.483 51.393 210.971 51.937 211.275 52.545C211.579 53.137 211.731 53.825 211.731 54.609C211.731 55.633 211.459 56.545 210.915 57.345C210.387 58.129 209.635 58.745 208.659 59.193C207.683 59.641 206.531 59.865 205.203 59.865Z" fill="white"/>
</svg>
