<svg width="198" height="59" viewBox="0 0 198 59" fill="none" xmlns="http://www.w3.org/2000/svg">
<rect width="198" height="59" rx="29.5" fill="white"/>
<path d="M16.56 37.5V36.44H17.4C17.6 36.44 17.7733 36.4133 17.92 36.36C18.08 36.2933 18.2 36.1667 18.28 35.98C18.3733 35.7933 18.42 35.5133 18.42 35.14V25.58C18.42 25.1933 18.3733 24.9133 18.28 24.74C18.2 24.5533 18.08 24.4333 17.92 24.38C17.7733 24.3133 17.6 24.28 17.4 24.28H16.56V23.22H23.46V24.28H22.62C22.4333 24.28 22.26 24.3067 22.1 24.36C21.9533 24.4133 21.8333 24.5267 21.74 24.7C21.6467 24.8733 21.6 25.14 21.6 25.5V36.28H25.32C25.6267 36.28 25.8867 36.2133 26.1 36.08C26.3267 35.9467 26.5067 35.7533 26.64 35.5C26.7867 35.2333 26.9 34.9133 26.98 34.54L27.3 33.04H28.42L28.28 37.5H16.56ZM35.2059 37.7C33.5126 37.7 32.2259 37.22 31.3459 36.26C30.4659 35.2867 30.0259 33.9333 30.0259 32.2C30.0259 30.32 30.4593 28.9067 31.3259 27.96C32.1926 27 33.4126 26.52 34.9859 26.52C36.4393 26.52 37.5793 26.9267 38.4059 27.74C39.2459 28.5533 39.6659 29.7533 39.6659 31.34V32.36H33.1059C33.1326 33.2533 33.2526 33.9867 33.4659 34.56C33.6793 35.12 33.9793 35.5333 34.3659 35.8C34.7659 36.0667 35.2393 36.2 35.7859 36.2C36.2526 36.2 36.6659 36.1333 37.0259 36C37.3993 35.8533 37.7193 35.66 37.9859 35.42C38.2526 35.1667 38.4593 34.8867 38.6059 34.58C38.7926 34.6733 38.9259 34.8067 39.0059 34.98C39.0993 35.14 39.1459 35.3333 39.1459 35.56C39.1459 35.9333 39.0059 36.2867 38.7259 36.62C38.4459 36.94 38.0126 37.2 37.4259 37.4C36.8526 37.6 36.1126 37.7 35.2059 37.7ZM36.6059 31.08C36.6059 30.4 36.5526 29.82 36.4459 29.34C36.3393 28.8467 36.1726 28.4733 35.9459 28.22C35.7193 27.9533 35.4126 27.82 35.0259 27.82C34.6526 27.82 34.3259 27.9467 34.0459 28.2C33.7793 28.44 33.5659 28.8067 33.4059 29.3C33.2593 29.78 33.1726 30.3733 33.1459 31.08H36.6059ZM44.5517 37.7C43.9651 37.7 43.4317 37.5867 42.9517 37.36C42.4851 37.12 42.1117 36.76 41.8317 36.28C41.5517 35.7867 41.4117 35.1733 41.4117 34.44C41.4117 33.36 41.7851 32.56 42.5317 32.04C43.2784 31.52 44.3984 31.2333 45.8917 31.18L47.5317 31.12V30.02C47.5317 29.5667 47.5051 29.1733 47.4517 28.84C47.3984 28.4933 47.2851 28.2267 47.1117 28.04C46.9384 27.84 46.6651 27.74 46.2917 27.74C45.9584 27.74 45.6917 27.8333 45.4917 28.02C45.2917 28.2067 45.1517 28.4667 45.0717 28.8C44.9917 29.12 44.9517 29.4867 44.9517 29.9C44.0584 29.9 43.3851 29.8 42.9317 29.6C42.4784 29.4 42.2517 29.0533 42.2517 28.56C42.2517 28.0667 42.4384 27.6733 42.8117 27.38C43.1851 27.0867 43.6851 26.8733 44.3117 26.74C44.9384 26.5933 45.6251 26.52 46.3717 26.52C47.7717 26.52 48.8184 26.7733 49.5117 27.28C50.2184 27.7867 50.5717 28.6667 50.5717 29.92V35.02C50.5717 35.38 50.6051 35.6667 50.6717 35.88C50.7517 36.08 50.8784 36.2267 51.0517 36.32C51.2384 36.4 51.4784 36.44 51.7717 36.44H51.8517V37.5H48.1317L47.7117 36.12H47.5317C47.2384 36.48 46.9584 36.78 46.6917 37.02C46.4384 37.2467 46.1451 37.4133 45.8117 37.52C45.4784 37.64 45.0584 37.7 44.5517 37.7ZM45.6517 36.24C46.0384 36.24 46.3717 36.14 46.6517 35.94C46.9317 35.7267 47.1451 35.4267 47.2917 35.04C47.4517 34.6533 47.5317 34.2 47.5317 33.68V32.18L46.6317 32.24C46.0984 32.2667 45.6784 32.3733 45.3717 32.56C45.0651 32.7333 44.8451 32.9867 44.7117 33.32C44.5784 33.64 44.5117 34.04 44.5117 34.52C44.5117 34.8933 44.5517 35.2133 44.6317 35.48C44.7117 35.7333 44.8384 35.9267 45.0117 36.06C45.1851 36.18 45.3984 36.24 45.6517 36.24ZM52.8844 37.5V36.44H52.9444C53.251 36.44 53.5177 36.4067 53.7444 36.34C53.971 36.2733 54.151 36.14 54.2844 35.94C54.4177 35.7267 54.4844 35.4133 54.4844 35V29.2C54.4844 28.8 54.4244 28.5067 54.3044 28.32C54.1844 28.12 54.0177 27.9933 53.8044 27.94C53.591 27.8733 53.3377 27.84 53.0444 27.84H52.9844V26.78H57.0244L57.4244 28.34H57.5244C57.6977 27.94 57.8977 27.6067 58.1244 27.34C58.351 27.0733 58.6377 26.8733 58.9844 26.74C59.3444 26.6067 59.7977 26.54 60.3444 26.54C61.131 26.54 61.711 26.68 62.0844 26.96C62.4577 27.24 62.6444 27.64 62.6444 28.16C62.6444 28.7733 62.4177 29.2533 61.9644 29.6C61.5244 29.9333 60.9044 30.1 60.1044 30.1C60.1044 29.7267 60.071 29.42 60.0044 29.18C59.951 28.94 59.851 28.76 59.7044 28.64C59.571 28.5067 59.3777 28.44 59.1244 28.44C58.7777 28.44 58.4977 28.56 58.2844 28.8C58.071 29.04 57.911 29.34 57.8044 29.7C57.6977 30.0467 57.6244 30.4 57.5844 30.76C57.5444 31.12 57.5244 31.4133 57.5244 31.64V35.1C57.5244 35.4867 57.5844 35.78 57.7044 35.98C57.8244 36.1667 57.991 36.2933 58.2044 36.36C58.4177 36.4133 58.6577 36.44 58.9244 36.44H59.5644V37.5H52.8844ZM63.3531 37.5V36.44H63.3931C63.6998 36.44 63.9665 36.4067 64.1931 36.34C64.4331 36.2733 64.6198 36.1467 64.7531 35.96C64.8865 35.76 64.9531 35.46 64.9531 35.06V29.14C64.9531 28.7667 64.8931 28.4867 64.7731 28.3C64.6531 28.1133 64.4865 27.9933 64.2731 27.94C64.0598 27.8733 63.8065 27.84 63.5131 27.84H63.4531V26.78H67.6531L67.9131 28.2H68.0131C68.2798 27.6933 68.5665 27.3267 68.8731 27.1C69.1931 26.86 69.5331 26.7067 69.8931 26.64C70.2665 26.56 70.6598 26.52 71.0731 26.52C72.0998 26.52 72.9065 26.8267 73.4931 27.44C74.0798 28.0533 74.3731 29.0333 74.3731 30.38V35.02C74.3731 35.4333 74.4198 35.74 74.5131 35.94C74.6198 36.14 74.7731 36.2733 74.9731 36.34C75.1731 36.4067 75.4198 36.44 75.7131 36.44H75.7731V37.5H71.3331V30.92C71.3331 30.0533 71.2131 29.3867 70.9731 28.92C70.7331 28.4533 70.3198 28.22 69.7331 28.22C69.2931 28.22 68.9465 28.3667 68.6931 28.66C68.4398 28.94 68.2598 29.32 68.1531 29.8C68.0465 30.2667 67.9931 30.7733 67.9931 31.32V35.14C67.9931 35.5133 68.0531 35.7933 68.1731 35.98C68.2931 36.1667 68.4598 36.2933 68.6731 36.36C68.8865 36.4133 69.1398 36.44 69.4331 36.44H69.4931V37.5H63.3531ZM76.633 37.5V36.44H76.873C77.073 36.44 77.2796 36.4133 77.493 36.36C77.7196 36.2933 77.9063 36.1667 78.053 35.98C78.213 35.7933 78.293 35.5133 78.293 35.14V29.06C78.293 28.7 78.213 28.4333 78.053 28.26C77.893 28.0867 77.6996 27.9733 77.473 27.92C77.2596 27.8667 77.0596 27.84 76.873 27.84H76.633V26.78H81.333V35.14C81.333 35.5133 81.4063 35.7933 81.553 35.98C81.713 36.1667 81.9063 36.2933 82.133 36.36C82.3596 36.4133 82.5663 36.44 82.753 36.44H82.993V37.5H76.633ZM79.713 24.98C79.233 24.98 78.8263 24.8667 78.493 24.64C78.173 24.4 78.013 24.0333 78.013 23.54C78.013 23.0333 78.1796 22.6667 78.513 22.44C78.8463 22.2133 79.253 22.1 79.733 22.1C80.1863 22.1 80.5796 22.2133 80.913 22.44C81.2596 22.6667 81.433 23.0333 81.433 23.54C81.433 24.0333 81.2596 24.4 80.913 24.64C80.5796 24.8667 80.1796 24.98 79.713 24.98ZM83.7242 37.5V36.44H83.7642C84.0709 36.44 84.3376 36.4067 84.5642 36.34C84.8042 36.2733 84.9909 36.1467 85.1242 35.96C85.2576 35.76 85.3242 35.46 85.3242 35.06V29.14C85.3242 28.7667 85.2642 28.4867 85.1442 28.3C85.0242 28.1133 84.8576 27.9933 84.6442 27.94C84.4309 27.8733 84.1776 27.84 83.8842 27.84H83.8242V26.78H88.0242L88.2842 28.2H88.3842C88.6509 27.6933 88.9376 27.3267 89.2442 27.1C89.5642 26.86 89.9042 26.7067 90.2642 26.64C90.6376 26.56 91.0309 26.52 91.4442 26.52C92.4709 26.52 93.2776 26.8267 93.8642 27.44C94.4509 28.0533 94.7442 29.0333 94.7442 30.38V35.02C94.7442 35.4333 94.7909 35.74 94.8842 35.94C94.9909 36.14 95.1442 36.2733 95.3442 36.34C95.5442 36.4067 95.7909 36.44 96.0842 36.44H96.1442V37.5H91.7042V30.92C91.7042 30.0533 91.5842 29.3867 91.3442 28.92C91.1042 28.4533 90.6909 28.22 90.1042 28.22C89.6642 28.22 89.3176 28.3667 89.0642 28.66C88.8109 28.94 88.6309 29.32 88.5242 29.8C88.4176 30.2667 88.3642 30.7733 88.3642 31.32V35.14C88.3642 35.5133 88.4242 35.7933 88.5442 35.98C88.6642 36.1667 88.8309 36.2933 89.0442 36.36C89.2576 36.4133 89.5109 36.44 89.8042 36.44H89.8642V37.5H83.7242ZM101.384 42.3C99.8107 42.3 98.6374 42.06 97.8641 41.58C97.0907 41.1133 96.7041 40.4267 96.7041 39.52C96.7041 39.04 96.8041 38.6333 97.0041 38.3C97.2174 37.98 97.5241 37.7267 97.9241 37.54C98.3374 37.3533 98.8307 37.24 99.4041 37.2C99.0441 37.0533 98.7107 36.84 98.4041 36.56C98.0974 36.2667 97.9441 35.8867 97.9441 35.42C97.9441 34.98 98.1107 34.5933 98.4441 34.26C98.7774 33.9267 99.2041 33.6133 99.7241 33.32C99.1374 33.1067 98.6507 32.74 98.2641 32.22C97.8774 31.7 97.6841 31.0333 97.6841 30.22C97.6841 29.0467 98.0241 28.14 98.7041 27.5C99.3841 26.8467 100.437 26.52 101.864 26.52C102.331 26.52 102.771 26.58 103.184 26.7C103.597 26.82 103.951 26.9667 104.244 27.14C104.484 26.8867 104.711 26.68 104.924 26.52C105.137 26.3467 105.357 26.22 105.584 26.14C105.811 26.06 106.057 26.02 106.324 26.02C106.804 26.02 107.164 26.1333 107.404 26.36C107.644 26.5867 107.764 26.8533 107.764 27.16C107.764 27.4533 107.664 27.72 107.464 27.96C107.264 28.1867 106.891 28.3 106.344 28.3C106.344 28.0333 106.264 27.8267 106.104 27.68C105.944 27.5333 105.771 27.46 105.584 27.46C105.477 27.46 105.357 27.48 105.224 27.52C105.091 27.56 104.991 27.6133 104.924 27.68C105.191 27.9733 105.417 28.3467 105.604 28.8C105.804 29.2533 105.904 29.7267 105.904 30.22C105.904 31.2333 105.577 32.0733 104.924 32.74C104.271 33.3933 103.251 33.72 101.864 33.72C101.717 33.72 101.517 33.7133 101.264 33.7C101.011 33.6867 100.824 33.6733 100.704 33.66C100.517 33.74 100.351 33.8733 100.204 34.06C100.057 34.2333 99.9841 34.44 99.9841 34.68C99.9841 34.8933 100.071 35.0533 100.244 35.16C100.417 35.2667 100.644 35.32 100.924 35.32H103.344C104.237 35.32 104.964 35.44 105.524 35.68C106.084 35.92 106.497 36.2733 106.764 36.74C107.044 37.1933 107.184 37.74 107.184 38.38C107.184 39.6067 106.711 40.5667 105.764 41.26C104.817 41.9533 103.357 42.3 101.384 42.3ZM101.424 41.1C102.211 41.1 102.851 41.02 103.344 40.86C103.837 40.7133 104.197 40.4933 104.424 40.2C104.664 39.9067 104.784 39.54 104.784 39.1C104.784 38.6733 104.651 38.3733 104.384 38.2C104.117 38.04 103.711 37.96 103.164 37.96H100.844C100.577 37.96 100.304 37.9933 100.024 38.06C99.7574 38.14 99.5307 38.2867 99.3441 38.5C99.1574 38.7133 99.0641 39.04 99.0641 39.48C99.0641 39.84 99.1507 40.14 99.3241 40.38C99.5107 40.62 99.7774 40.8 100.124 40.92C100.484 41.04 100.917 41.1 101.424 41.1ZM101.804 32.54C102.164 32.54 102.437 32.4467 102.624 32.26C102.824 32.0733 102.964 31.8067 103.044 31.46C103.124 31.1 103.164 30.68 103.164 30.2C103.164 29.7067 103.124 29.2733 103.044 28.9C102.964 28.5267 102.824 28.24 102.624 28.04C102.424 27.8267 102.144 27.72 101.784 27.72C101.437 27.72 101.164 27.8267 100.964 28.04C100.764 28.2533 100.617 28.5467 100.524 28.92C100.444 29.2933 100.404 29.7267 100.404 30.22C100.404 30.6867 100.444 31.0933 100.524 31.44C100.617 31.7867 100.764 32.06 100.964 32.26C101.177 32.4467 101.457 32.54 101.804 32.54ZM121.071 37.7C119.524 37.7 118.237 37.3933 117.211 36.78C116.184 36.1667 115.417 35.3133 114.911 34.22C114.404 33.1133 114.151 31.82 114.151 30.34C114.151 28.9 114.411 27.6333 114.931 26.54C115.451 25.4333 116.224 24.5733 117.251 23.96C118.277 23.3333 119.544 23.02 121.051 23.02C122.077 23.02 122.924 23.1267 123.591 23.34C124.271 23.54 124.777 23.8133 125.111 24.16C125.444 24.5067 125.611 24.9 125.611 25.34C125.611 25.8333 125.397 26.2467 124.971 26.58C124.544 26.9133 123.924 27.08 123.111 27.08C123.111 26.64 123.044 26.2067 122.911 25.78C122.777 25.3533 122.551 25 122.231 24.72C121.911 24.44 121.471 24.3 120.911 24.3C120.071 24.3 119.397 24.54 118.891 25.02C118.397 25.4867 118.044 26.1667 117.831 27.06C117.617 27.9533 117.511 29.0467 117.511 30.34C117.511 31.62 117.637 32.6867 117.891 33.54C118.157 34.3933 118.584 35.0333 119.171 35.46C119.771 35.8867 120.564 36.1 121.551 36.1C122.204 36.1 122.764 36.0067 123.231 35.82C123.697 35.62 124.091 35.3733 124.411 35.08C124.744 34.7867 125.024 34.4933 125.251 34.2C125.357 34.28 125.437 34.4 125.491 34.56C125.557 34.72 125.591 34.8867 125.591 35.06C125.591 35.34 125.511 35.6333 125.351 35.94C125.204 36.2467 124.957 36.5333 124.611 36.8C124.264 37.0667 123.797 37.2867 123.211 37.46C122.637 37.62 121.924 37.7 121.071 37.7ZM132.53 37.7C130.837 37.7 129.55 37.22 128.67 36.26C127.79 35.2867 127.35 33.9333 127.35 32.2C127.35 30.32 127.783 28.9067 128.65 27.96C129.517 27 130.737 26.52 132.31 26.52C133.763 26.52 134.903 26.9267 135.73 27.74C136.57 28.5533 136.99 29.7533 136.99 31.34V32.36H130.43C130.457 33.2533 130.577 33.9867 130.79 34.56C131.003 35.12 131.303 35.5333 131.69 35.8C132.09 36.0667 132.563 36.2 133.11 36.2C133.577 36.2 133.99 36.1333 134.35 36C134.723 35.8533 135.043 35.66 135.31 35.42C135.577 35.1667 135.783 34.8867 135.93 34.58C136.117 34.6733 136.25 34.8067 136.33 34.98C136.423 35.14 136.47 35.3333 136.47 35.56C136.47 35.9333 136.33 36.2867 136.05 36.62C135.77 36.94 135.337 37.2 134.75 37.4C134.177 37.6 133.437 37.7 132.53 37.7ZM133.93 31.08C133.93 30.4 133.877 29.82 133.77 29.34C133.663 28.8467 133.497 28.4733 133.27 28.22C133.043 27.9533 132.737 27.82 132.35 27.82C131.977 27.82 131.65 27.9467 131.37 28.2C131.103 28.44 130.89 28.8067 130.73 29.3C130.583 29.78 130.497 30.3733 130.47 31.08H133.93ZM138.236 37.5V36.44H138.276C138.583 36.44 138.849 36.4067 139.076 36.34C139.316 36.2733 139.503 36.1467 139.636 35.96C139.769 35.76 139.836 35.46 139.836 35.06V29.14C139.836 28.7667 139.776 28.4867 139.656 28.3C139.536 28.1133 139.369 27.9933 139.156 27.94C138.943 27.8733 138.689 27.84 138.396 27.84H138.336V26.78H142.536L142.796 28.2H142.896C143.163 27.6933 143.449 27.3267 143.756 27.1C144.076 26.86 144.416 26.7067 144.776 26.64C145.149 26.56 145.543 26.52 145.956 26.52C146.983 26.52 147.789 26.8267 148.376 27.44C148.963 28.0533 149.256 29.0333 149.256 30.38V35.02C149.256 35.4333 149.303 35.74 149.396 35.94C149.503 36.14 149.656 36.2733 149.856 36.34C150.056 36.4067 150.303 36.44 150.596 36.44H150.656V37.5H146.216V30.92C146.216 30.0533 146.096 29.3867 145.856 28.92C145.616 28.4533 145.203 28.22 144.616 28.22C144.176 28.22 143.829 28.3667 143.576 28.66C143.323 28.94 143.143 29.32 143.036 29.8C142.929 30.2667 142.876 30.7733 142.876 31.32V35.14C142.876 35.5133 142.936 35.7933 143.056 35.98C143.176 36.1667 143.343 36.2933 143.556 36.36C143.769 36.4133 144.023 36.44 144.316 36.44H144.376V37.5H138.236ZM156.036 37.7C155.142 37.7 154.429 37.4667 153.896 37C153.362 36.5333 153.096 35.7133 153.096 34.54V28.14H151.596V27.12C152.022 27.12 152.402 27.0333 152.736 26.86C153.082 26.6867 153.356 26.4933 153.556 26.28C153.756 26.0667 153.936 25.8 154.096 25.48C154.256 25.1467 154.382 24.7533 154.476 24.3H156.136V26.78H158.696V28.14H156.136V34.34C156.136 34.94 156.236 35.38 156.436 35.66C156.649 35.94 156.989 36.08 157.456 36.08C157.722 36.08 157.969 36.0667 158.196 36.04C158.436 36 158.662 35.9533 158.876 35.9V37.2C158.662 37.2933 158.309 37.4 157.816 37.52C157.336 37.64 156.742 37.7 156.036 37.7ZM165.401 37.7C163.708 37.7 162.421 37.22 161.541 36.26C160.661 35.2867 160.221 33.9333 160.221 32.2C160.221 30.32 160.655 28.9067 161.521 27.96C162.388 27 163.608 26.52 165.181 26.52C166.635 26.52 167.775 26.9267 168.601 27.74C169.441 28.5533 169.861 29.7533 169.861 31.34V32.36H163.301C163.328 33.2533 163.448 33.9867 163.661 34.56C163.875 35.12 164.175 35.5333 164.561 35.8C164.961 36.0667 165.435 36.2 165.981 36.2C166.448 36.2 166.861 36.1333 167.221 36C167.595 35.8533 167.915 35.66 168.181 35.42C168.448 35.1667 168.655 34.8867 168.801 34.58C168.988 34.6733 169.121 34.8067 169.201 34.98C169.295 35.14 169.341 35.3333 169.341 35.56C169.341 35.9333 169.201 36.2867 168.921 36.62C168.641 36.94 168.208 37.2 167.621 37.4C167.048 37.6 166.308 37.7 165.401 37.7ZM166.801 31.08C166.801 30.4 166.748 29.82 166.641 29.34C166.535 28.8467 166.368 28.4733 166.141 28.22C165.915 27.9533 165.608 27.82 165.221 27.82C164.848 27.82 164.521 27.9467 164.241 28.2C163.975 28.44 163.761 28.8067 163.601 29.3C163.455 29.78 163.368 30.3733 163.341 31.08H166.801ZM171.107 37.5V36.44H171.167C171.474 36.44 171.74 36.4067 171.967 36.34C172.194 36.2733 172.374 36.14 172.507 35.94C172.64 35.7267 172.707 35.4133 172.707 35V29.2C172.707 28.8 172.647 28.5067 172.527 28.32C172.407 28.12 172.24 27.9933 172.027 27.94C171.814 27.8733 171.56 27.84 171.267 27.84H171.207V26.78H175.247L175.647 28.34H175.747C175.92 27.94 176.12 27.6067 176.347 27.34C176.574 27.0733 176.86 26.8733 177.207 26.74C177.567 26.6067 178.02 26.54 178.567 26.54C179.354 26.54 179.934 26.68 180.307 26.96C180.68 27.24 180.867 27.64 180.867 28.16C180.867 28.7733 180.64 29.2533 180.187 29.6C179.747 29.9333 179.127 30.1 178.327 30.1C178.327 29.7267 178.294 29.42 178.227 29.18C178.174 28.94 178.074 28.76 177.927 28.64C177.794 28.5067 177.6 28.44 177.347 28.44C177 28.44 176.72 28.56 176.507 28.8C176.294 29.04 176.134 29.34 176.027 29.7C175.92 30.0467 175.847 30.4 175.807 30.76C175.767 31.12 175.747 31.4133 175.747 31.64V35.1C175.747 35.4867 175.807 35.78 175.927 35.98C176.047 36.1667 176.214 36.2933 176.427 36.36C176.64 36.4133 176.88 36.44 177.147 36.44H177.787V37.5H171.107Z" fill="#F18E1A"/>
</svg>
