<svg width="198" height="59" viewBox="0 0 198 59" fill="none" xmlns="http://www.w3.org/2000/svg">
<rect x="1" y="1" width="196" height="57" rx="28.5" fill="#F18E1A"/>
<rect x="1" y="1" width="196" height="57" rx="28.5" stroke="white" stroke-width="2"/>
<path d="M53.78 37.7C52.8867 37.7 52.14 37.62 51.54 37.46C50.94 37.2867 50.46 37.0667 50.1 36.8C49.74 36.52 49.48 36.2133 49.32 35.88C49.1733 35.5467 49.1 35.22 49.1 34.9C49.1 34.4467 49.2067 34.0867 49.42 33.82C49.6333 33.54 49.9133 33.34 50.26 33.22C50.6067 33.1 50.9733 33.04 51.36 33.04C51.36 33.8 51.4733 34.44 51.7 34.96C51.94 35.4667 52.2667 35.8533 52.68 36.12C53.0933 36.3733 53.5667 36.5 54.1 36.5C54.8867 36.5 55.4933 36.2933 55.92 35.88C56.36 35.4667 56.58 34.9533 56.58 34.34C56.58 33.8867 56.4533 33.5 56.2 33.18C55.96 32.8467 55.5933 32.5467 55.1 32.28C54.6067 32 53.9867 31.7067 53.24 31.4C52.5467 31.12 51.96 30.8267 51.48 30.52C51 30.2133 50.6133 29.8867 50.32 29.54C50.0267 29.18 49.8133 28.8 49.68 28.4C49.56 27.9867 49.5 27.5333 49.5 27.04C49.5 26.2267 49.7133 25.52 50.14 24.92C50.5667 24.32 51.1467 23.8533 51.88 23.52C52.6267 23.1867 53.4667 23.02 54.4 23.02C55.3867 23.02 56.1933 23.1267 56.82 23.34C57.4467 23.54 57.9067 23.8133 58.2 24.16C58.5067 24.5067 58.66 24.9 58.66 25.34C58.66 25.8067 58.4533 26.2 58.04 26.52C57.64 26.84 57.0267 27 56.2 27C56.2 26.6267 56.1267 26.2267 55.98 25.8C55.8467 25.3733 55.6267 25.0067 55.32 24.7C55.0133 24.3933 54.6 24.24 54.08 24.24C53.72 24.24 53.3867 24.3133 53.08 24.46C52.7867 24.5933 52.5467 24.8 52.36 25.08C52.1867 25.3467 52.1 25.68 52.1 26.08C52.1 26.4533 52.1867 26.8 52.36 27.12C52.5333 27.44 52.86 27.76 53.34 28.08C53.82 28.3867 54.5067 28.72 55.4 29.08C56.32 29.4533 57.06 29.84 57.62 30.24C58.18 30.64 58.5867 31.0933 58.84 31.6C59.0933 32.0933 59.22 32.6667 59.22 33.32C59.22 34.1733 58.9933 34.9333 58.54 35.6C58.1 36.2533 57.4733 36.7667 56.66 37.14C55.8467 37.5133 54.8867 37.7 53.78 37.7ZM65.3788 37.7C64.3388 37.7 63.5388 37.38 62.9788 36.74C62.4188 36.0867 62.1388 35.0867 62.1388 33.74V29.26C62.1388 28.8733 62.0921 28.58 61.9988 28.38C61.9054 28.1667 61.7588 28.0267 61.5588 27.96C61.3588 27.88 61.0988 27.84 60.7788 27.84H60.7388V26.78H65.1788V33.18C65.1788 33.7533 65.2188 34.2533 65.2988 34.68C65.3921 35.0933 65.5521 35.42 65.7788 35.66C66.0054 35.8867 66.3121 36 66.6988 36C67.1254 36 67.4721 35.88 67.7388 35.64C68.0054 35.3867 68.1988 35.0333 68.3188 34.58C68.4521 34.1133 68.5188 33.5733 68.5188 32.96V29.12C68.5188 28.7333 68.4521 28.4533 68.3188 28.28C68.1854 28.0933 68.0121 27.9733 67.7988 27.92C67.5854 27.8667 67.3454 27.84 67.0788 27.84H67.0188V26.78H71.5588V35.18C71.5588 35.5667 71.6121 35.8533 71.7188 36.04C71.8388 36.2133 71.9988 36.3267 72.1988 36.38C72.4121 36.42 72.6454 36.44 72.8988 36.44H73.0588V37.5H69.0788L68.6388 36.08H68.5388C68.3388 36.4267 68.1188 36.7067 67.8788 36.92C67.6521 37.1333 67.4054 37.3 67.1388 37.42C66.8721 37.5267 66.5921 37.6 66.2988 37.64C66.0054 37.68 65.6988 37.7 65.3788 37.7ZM81.4986 37.7C80.7253 37.7 80.0919 37.54 79.5986 37.22C79.1186 36.8867 78.7319 36.46 78.4386 35.94H78.2586L77.6986 37.5H73.8986V36.44H74.0386C74.2919 36.44 74.5319 36.4067 74.7586 36.34C74.9986 36.2733 75.1919 36.14 75.3386 35.94C75.4853 35.74 75.5586 35.44 75.5586 35.04V24.7C75.5586 24.3133 75.4853 24.0267 75.3386 23.84C75.1919 23.6533 74.9986 23.5267 74.7586 23.46C74.5319 23.3933 74.2719 23.36 73.9786 23.36H73.8986V22.3H78.5986V25.72C78.5986 25.92 78.5919 26.1733 78.5786 26.48C78.5653 26.7733 78.5453 27.0733 78.5186 27.38C78.4919 27.6867 78.4653 27.94 78.4386 28.14H78.5786C78.8719 27.6467 79.2519 27.26 79.7186 26.98C80.1986 26.6867 80.8186 26.54 81.5786 26.54C82.8853 26.54 83.8786 26.9867 84.5586 27.88C85.2519 28.76 85.5986 30.1667 85.5986 32.1C85.5986 33.3933 85.4386 34.4533 85.1186 35.28C84.8119 36.1067 84.3519 36.72 83.7386 37.12C83.1386 37.5067 82.3919 37.7 81.4986 37.7ZM80.6586 36.2C81.0986 36.2 81.4519 36.04 81.7186 35.72C81.9986 35.4 82.1986 34.9333 82.3186 34.32C82.4519 33.7067 82.5186 32.96 82.5186 32.08C82.5186 31.1733 82.4519 30.42 82.3186 29.82C82.1986 29.22 81.9986 28.7733 81.7186 28.48C81.4519 28.1733 81.0919 28.02 80.6386 28.02C79.8519 28.02 79.3119 28.3533 79.0186 29.02C78.7386 29.6867 78.5986 30.7133 78.5986 32.1C78.5986 32.98 78.6586 33.7267 78.7786 34.34C78.8986 34.94 79.1053 35.4 79.3986 35.72C79.7053 36.04 80.1253 36.2 80.6586 36.2ZM91.1669 37.7C90.2069 37.7 89.4269 37.6 88.8269 37.4C88.2402 37.1867 87.8135 36.9067 87.5469 36.56C87.2802 36.2 87.1469 35.8 87.1469 35.36C87.1469 34.92 87.2535 34.5933 87.4669 34.38C87.6802 34.1667 87.9335 34.0267 88.2269 33.96C88.5202 33.88 88.7802 33.84 89.0069 33.84C89.0069 34.3867 89.0935 34.8667 89.2669 35.28C89.4535 35.68 89.7069 35.9867 90.0269 36.2C90.3602 36.4133 90.7402 36.52 91.1669 36.52C91.8602 36.52 92.3602 36.3867 92.6669 36.12C92.9869 35.8533 93.1469 35.5333 93.1469 35.16C93.1469 34.8667 93.0735 34.6133 92.9269 34.4C92.7802 34.1733 92.5269 33.9667 92.1669 33.78C91.8069 33.58 91.3135 33.3733 90.6869 33.16C89.9669 32.9067 89.3602 32.6333 88.8669 32.34C88.3735 32.0333 87.9935 31.6733 87.7269 31.26C87.4735 30.8333 87.3469 30.32 87.3469 29.72C87.3469 28.6533 87.7402 27.86 88.5269 27.34C89.3135 26.8067 90.3535 26.54 91.6469 26.54C92.4869 26.54 93.1602 26.6333 93.6669 26.82C94.1869 26.9933 94.5602 27.2267 94.7869 27.52C95.0269 27.8 95.1469 28.0933 95.1469 28.4C95.1469 28.8533 94.9869 29.2 94.6669 29.44C94.3602 29.6667 93.8402 29.78 93.1069 29.78C93.1069 29.1133 92.9602 28.6 92.6669 28.24C92.3735 27.8667 91.9335 27.68 91.3469 27.68C91.0669 27.68 90.8002 27.7267 90.5469 27.82C90.3069 27.9133 90.1069 28.0533 89.9469 28.24C89.8002 28.4133 89.7269 28.64 89.7269 28.92C89.7269 29.2 89.8002 29.4467 89.9469 29.66C90.1069 29.8733 90.3869 30.08 90.7869 30.28C91.1869 30.48 91.7469 30.7067 92.4669 30.96C93.0669 31.16 93.5935 31.4067 94.0469 31.7C94.5002 31.98 94.8535 32.3267 95.1069 32.74C95.3735 33.14 95.5069 33.62 95.5069 34.18C95.5069 35.2867 95.1269 36.1533 94.3669 36.78C93.6202 37.3933 92.5535 37.7 91.1669 37.7ZM102.213 37.7C101.239 37.7 100.379 37.5267 99.6325 37.18C98.8858 36.82 98.2992 36.24 97.8725 35.44C97.4592 34.6267 97.2525 33.54 97.2525 32.18C97.2525 30.74 97.4658 29.6133 97.8925 28.8C98.3325 27.9733 98.9192 27.3867 99.6525 27.04C100.399 26.6933 101.233 26.52 102.153 26.52C103.019 26.52 103.746 26.6133 104.333 26.8C104.919 26.9867 105.359 27.24 105.653 27.56C105.959 27.8667 106.113 28.22 106.113 28.62C106.113 28.9 106.039 29.1733 105.893 29.44C105.759 29.6933 105.506 29.9067 105.133 30.08C104.759 30.24 104.226 30.32 103.533 30.32C103.533 29.8533 103.493 29.4267 103.413 29.04C103.333 28.6533 103.199 28.34 103.013 28.1C102.826 27.86 102.566 27.74 102.233 27.74C101.846 27.74 101.506 27.8733 101.213 28.14C100.933 28.3933 100.713 28.84 100.553 29.48C100.406 30.12 100.333 31.0133 100.333 32.16C100.333 33.0533 100.413 33.8 100.573 34.4C100.746 35 101.006 35.4533 101.353 35.76C101.699 36.0533 102.153 36.2 102.713 36.2C103.179 36.2 103.599 36.1333 103.973 36C104.359 35.8533 104.693 35.66 104.973 35.42C105.253 35.1667 105.466 34.8867 105.613 34.58C105.773 34.6733 105.893 34.8067 105.973 34.98C106.053 35.14 106.093 35.3133 106.093 35.5C106.093 35.8333 105.953 36.1733 105.673 36.52C105.406 36.8533 104.986 37.1333 104.413 37.36C103.853 37.5867 103.119 37.7 102.213 37.7ZM107.259 37.5V36.44H107.319C107.626 36.44 107.893 36.4067 108.119 36.34C108.346 36.2733 108.526 36.14 108.659 35.94C108.793 35.7267 108.859 35.4133 108.859 35V29.2C108.859 28.8 108.799 28.5067 108.679 28.32C108.559 28.12 108.393 27.9933 108.179 27.94C107.966 27.8733 107.713 27.84 107.419 27.84H107.359V26.78H111.399L111.799 28.34H111.899C112.073 27.94 112.273 27.6067 112.499 27.34C112.726 27.0733 113.013 26.8733 113.359 26.74C113.719 26.6067 114.173 26.54 114.719 26.54C115.506 26.54 116.086 26.68 116.459 26.96C116.833 27.24 117.019 27.64 117.019 28.16C117.019 28.7733 116.793 29.2533 116.339 29.6C115.899 29.9333 115.279 30.1 114.479 30.1C114.479 29.7267 114.446 29.42 114.379 29.18C114.326 28.94 114.226 28.76 114.079 28.64C113.946 28.5067 113.753 28.44 113.499 28.44C113.153 28.44 112.873 28.56 112.659 28.8C112.446 29.04 112.286 29.34 112.179 29.7C112.073 30.0467 111.999 30.4 111.959 30.76C111.919 31.12 111.899 31.4133 111.899 31.64V35.1C111.899 35.4867 111.959 35.78 112.079 35.98C112.199 36.1667 112.366 36.2933 112.579 36.36C112.793 36.4133 113.033 36.44 113.299 36.44H113.939V37.5H107.259ZM117.668 37.5V36.44H117.908C118.108 36.44 118.315 36.4133 118.528 36.36C118.755 36.2933 118.941 36.1667 119.088 35.98C119.248 35.7933 119.328 35.5133 119.328 35.14V29.06C119.328 28.7 119.248 28.4333 119.088 28.26C118.928 28.0867 118.735 27.9733 118.508 27.92C118.295 27.8667 118.095 27.84 117.908 27.84H117.668V26.78H122.368V35.14C122.368 35.5133 122.441 35.7933 122.588 35.98C122.748 36.1667 122.941 36.2933 123.168 36.36C123.395 36.4133 123.601 36.44 123.788 36.44H124.028V37.5H117.668ZM120.748 24.98C120.268 24.98 119.861 24.8667 119.528 24.64C119.208 24.4 119.048 24.0333 119.048 23.54C119.048 23.0333 119.215 22.6667 119.548 22.44C119.881 22.2133 120.288 22.1 120.768 22.1C121.221 22.1 121.615 22.2133 121.948 22.44C122.295 22.6667 122.468 23.0333 122.468 23.54C122.468 24.0333 122.295 24.4 121.948 24.64C121.615 24.8667 121.215 24.98 120.748 24.98ZM132.299 37.7C131.526 37.7 130.893 37.54 130.399 37.22C129.919 36.8867 129.533 36.46 129.239 35.94H129.059L128.499 37.5H124.699V36.44H124.839C125.093 36.44 125.333 36.4067 125.559 36.34C125.799 36.2733 125.993 36.14 126.139 35.94C126.286 35.74 126.359 35.44 126.359 35.04V24.7C126.359 24.3133 126.286 24.0267 126.139 23.84C125.993 23.6533 125.799 23.5267 125.559 23.46C125.333 23.3933 125.073 23.36 124.779 23.36H124.699V22.3H129.399V25.72C129.399 25.92 129.393 26.1733 129.379 26.48C129.366 26.7733 129.346 27.0733 129.319 27.38C129.293 27.6867 129.266 27.94 129.239 28.14H129.379C129.673 27.6467 130.053 27.26 130.519 26.98C130.999 26.6867 131.619 26.54 132.379 26.54C133.686 26.54 134.679 26.9867 135.359 27.88C136.053 28.76 136.399 30.1667 136.399 32.1C136.399 33.3933 136.239 34.4533 135.919 35.28C135.613 36.1067 135.153 36.72 134.539 37.12C133.939 37.5067 133.193 37.7 132.299 37.7ZM131.459 36.2C131.899 36.2 132.253 36.04 132.519 35.72C132.799 35.4 132.999 34.9333 133.119 34.32C133.253 33.7067 133.319 32.96 133.319 32.08C133.319 31.1733 133.253 30.42 133.119 29.82C132.999 29.22 132.799 28.7733 132.519 28.48C132.253 28.1733 131.893 28.02 131.439 28.02C130.653 28.02 130.113 28.3533 129.819 29.02C129.539 29.6867 129.399 30.7133 129.399 32.1C129.399 32.98 129.459 33.7267 129.579 34.34C129.699 34.94 129.906 35.4 130.199 35.72C130.506 36.04 130.926 36.2 131.459 36.2ZM143.468 37.7C141.774 37.7 140.488 37.22 139.608 36.26C138.728 35.2867 138.288 33.9333 138.288 32.2C138.288 30.32 138.721 28.9067 139.588 27.96C140.454 27 141.674 26.52 143.248 26.52C144.701 26.52 145.841 26.9267 146.668 27.74C147.508 28.5533 147.928 29.7533 147.928 31.34V32.36H141.368C141.394 33.2533 141.514 33.9867 141.728 34.56C141.941 35.12 142.241 35.5333 142.628 35.8C143.028 36.0667 143.501 36.2 144.048 36.2C144.514 36.2 144.928 36.1333 145.288 36C145.661 35.8533 145.981 35.66 146.248 35.42C146.514 35.1667 146.721 34.8867 146.868 34.58C147.054 34.6733 147.188 34.8067 147.268 34.98C147.361 35.14 147.408 35.3333 147.408 35.56C147.408 35.9333 147.268 36.2867 146.988 36.62C146.708 36.94 146.274 37.2 145.688 37.4C145.114 37.6 144.374 37.7 143.468 37.7ZM144.868 31.08C144.868 30.4 144.814 29.82 144.708 29.34C144.601 28.8467 144.434 28.4733 144.208 28.22C143.981 27.9533 143.674 27.82 143.288 27.82C142.914 27.82 142.588 27.9467 142.308 28.2C142.041 28.44 141.828 28.8067 141.668 29.3C141.521 29.78 141.434 30.3733 141.408 31.08H144.868Z" fill="white"/>
</svg>
