<svg width="237" height="36" viewBox="0 0 237 36" fill="none" xmlns="http://www.w3.org/2000/svg">
<g id="x house logo">
<g id="symoblic mark">
<path id="Vector" d="M3 17.1187L29.8496 3.14478" stroke="#FFD700" stroke-width="5" stroke-miterlimit="1" stroke-linecap="round"/>
<path id="Vector_2" d="M6.7113 16.5V32.1843" stroke="#FFD700" stroke-width="5" stroke-miterlimit="1" stroke-linecap="round"/>
<path id="Vector_3" d="M27.8235 16.9238V32.6145" stroke="#FFD700" stroke-width="5" stroke-miterlimit="1" stroke-linecap="round"/>
<path id="Vector_4" d="M7.5885 23.7654H27.8361" stroke="#FFD700" stroke-width="5" stroke-miterlimit="1" stroke-linecap="round"/>
<path id="Vector_5" d="M3.78284 3L30.645 16.955" stroke="#FFD700" stroke-width="5" stroke-miterlimit="1" stroke-linecap="round"/>
</g>
<g id="wordmark">
<g id="Group">
<g id="Group_2">
<path id="Vector_6" d="M97.3523 3.42046V32.0958C97.3523 32.3481 97.5297 32.5162 97.7957 32.5162H102.452C102.718 32.5162 102.895 32.3481 102.895 32.0958V19.7343C102.895 19.482 103.073 19.3138 103.339 19.3138H114.115C114.381 19.3138 114.558 19.482 114.558 19.7343V32.0537C114.558 32.306 114.735 32.4742 115.001 32.4742H119.658C119.924 32.4742 120.101 32.306 120.101 32.0537V3.46251C120.101 3.21023 119.924 3.04205 119.658 3.04205H115.001C114.735 3.04205 114.558 3.21023 114.558 3.46251V15.4036C114.558 15.6558 114.381 15.824 114.115 15.824H103.339C103.073 15.824 102.895 15.6558 102.895 15.4036V3.42046C102.895 3.16818 102.718 3 102.452 3H97.7957C97.5297 3 97.3523 3.16818 97.3523 3.42046Z" fill="#0B171B" stroke="#0B171B" stroke-width="2" stroke-miterlimit="2" stroke-linejoin="round"/>
</g>
<g id="Group_3">
<path id="Vector_7" d="M138.574 29.8857C141.146 29.8857 142.919 28.9607 143.895 27.1107C144.826 25.2607 145.314 23.2004 145.314 20.9299C145.314 18.8697 145.004 17.1878 144.294 15.9265C143.185 13.9083 141.279 12.8992 138.618 12.8992C136.223 12.8992 134.494 13.7401 133.43 15.464C132.321 17.1878 131.789 19.2901 131.789 21.7288C131.789 24.0413 132.321 26.0175 133.43 27.5732C134.494 29.1289 136.223 29.8857 138.574 29.8857ZM138.707 9.66162C141.722 9.66162 144.25 10.5866 146.29 12.4787C148.374 14.3708 149.394 17.1458 149.394 20.8458C149.394 24.3777 148.507 27.3209 146.689 29.6334C144.871 31.946 142.033 33.0812 138.219 33.0812C135.026 33.0812 132.498 32.0721 130.592 30.0119C128.729 27.9516 127.798 25.2186 127.798 21.7709C127.798 18.0708 128.773 15.1276 130.769 12.9412C132.72 10.7548 135.381 9.66162 138.707 9.66162Z" fill="#0B171B" stroke="#0B171B" stroke-width="2" stroke-miterlimit="2" stroke-linejoin="round"/>
</g>
<g id="Group_4">
<path id="Vector_8" d="M160.051 15.1955C159.74 8.17382 156.636 13.5137 157.035 23.8149C157.213 28.3138 159.563 32.6025 166.658 33.065C175.217 33.6116 178.587 30.2059 178.587 21.5865C178.587 18.0967 178.676 12 177.7 12H173.709C172.778 12 177.744 28.44 168.122 28.44C163.022 28.44 160.45 24.3195 160.051 15.1955Z" fill="#0B171B" stroke="#0B171B" stroke-width="2" stroke-miterlimit="2" stroke-linejoin="round"/>
</g>
<g id="Group_5">
<path id="Vector_9" d="M205.863 15.7168C206.75 12.2691 206.839 12.3952 205.109 11.9327C201.606 11.0077 200.453 10.6713 196.64 10.7975C188.746 11.0497 186.795 17.8612 190.077 20.2158C192.604 22.0237 202.582 22.4442 201.961 26.0601C201.429 29.2136 194.644 27.5738 190.963 27.0272C187.948 26.5647 188.391 25.8079 187.593 29.9704C187.416 30.8534 187.283 30.8534 190.52 31.2318L197.748 32.1148C208.435 33.4182 208.347 22.4862 202.582 20.2578C199.611 19.1226 195.974 18.9964 194.644 17.4828C193.358 16.0112 195.176 14.4975 197.305 14.4975C200.143 14.4975 205.642 16.5157 205.863 15.7168Z" fill="#0B171B" stroke="#0B171B" stroke-width="2" stroke-miterlimit="2" stroke-linejoin="round"/>
</g>
<g id="Group_6">
<path id="Vector_10" d="M220.302 21.3675H236C235.911 18.3823 234.714 15.355 234.049 14.472C232.852 12.4118 229.925 10.772 226.51 10.772C222.697 10.772 219.282 12.9163 218.04 15.9016C216.4 19.6857 216.4 22.2926 217.907 26.2449C219.992 31.3745 223.406 31.7949 225.801 31.9211C232.408 32.2574 235.734 26.5392 235.601 26.4551C234.581 25.8244 234.581 25.8244 233.162 25.0676C226.909 32.1734 219.415 27.6744 220.302 21.3675ZM232.541 19.055L220.524 18.9289C220.391 16.9527 221.987 15.0607 224.249 14.1356C225.668 13.505 227.708 13.3788 228.816 13.8834C230.856 14.6402 232.497 16.9107 232.541 19.055Z" fill="#0B171B" stroke="#0B171B" stroke-width="2" stroke-miterlimit="2" stroke-linejoin="round"/>
</g>
<g id="Group_7">
<path id="Vector_11" d="M60.7666 13.6937L53.6271 3.05606C53.5384 2.92992 53.3167 3.05606 53.0949 3.05606H49.8578C49.503 3.05606 49.1926 3.14015 49.5917 3.7288L58.3276 16.4267C58.4606 16.6369 58.4606 17.1835 58.3276 17.3517L47.1084 32.6144C46.8867 32.9087 47.0197 33.1189 47.3745 33.1189L50.2569 33.0769C50.4786 33.0769 50.656 32.9928 50.789 32.8246L60.3675 20.7994C60.7666 20.2528 61.077 20.379 61.4317 20.7994L70.4781 32.9928C70.6111 33.161 70.7885 33.203 71.0102 33.203H74.3804C74.7351 33.203 74.8238 32.8666 74.6465 32.6144L63.782 17.3517C63.649 17.1415 63.6933 16.6369 63.8263 16.4267L73.5822 3.77084C74.07 3.14015 73.6265 3.05606 73.2718 3.05606H69.8572L61.343 13.6937C61.1657 13.9039 60.9439 13.946 60.7666 13.6937Z" fill="#0B171B" stroke="#0B171B" stroke-width="2.5" stroke-miterlimit="2" stroke-linejoin="round"/>
</g>
</g>
</g>
</g>
</svg>
